<svg width="21" height="21" viewBox="0 0 21 21" fill="none" xmlns="http://www.w3.org/2000/svg">
<path d="M11 6.5V2.5C11 2.21667 11.096 1.97933 11.288 1.788C11.48 1.59667 11.7173 1.50067 12 1.5H18C18.2833 1.5 18.521 1.596 18.713 1.788C18.905 1.98 19.0007 2.21733 19 2.5V6.5C19 6.78333 18.904 7.021 18.712 7.213C18.52 7.405 18.2827 7.50067 18 7.5H12C11.7167 7.5 11.4793 7.404 11.288 7.212C11.0967 7.02 11.0007 6.78267 11 6.5ZM1 10.5V2.5C1 2.21667 1.096 1.97933 1.288 1.788C1.48 1.59667 1.71733 1.50067 2 1.5H8C8.28333 1.5 8.521 1.596 8.713 1.788C8.905 1.98 9.00067 2.21733 9 2.5V10.5C9 10.7833 8.904 11.021 8.712 11.213C8.52 11.405 8.28267 11.5007 8 11.5H2C1.71667 11.5 1.47933 11.404 1.288 11.212C1.09667 11.02 1.00067 10.7827 1 10.5ZM11 18.5V10.5C11 10.2167 11.096 9.97933 11.288 9.788C11.48 9.59667 11.7173 9.50067 12 9.5H18C18.2833 9.5 18.521 9.596 18.713 9.788C18.905 9.98 19.0007 10.2173 19 10.5V18.5C19 18.7833 18.904 19.021 18.712 19.213C18.52 19.405 18.2827 19.5007 18 19.5H12C11.7167 19.5 11.4793 19.404 11.288 19.212C11.0967 19.02 11.0007 18.7827 11 18.5ZM1 18.5V14.5C1 14.2167 1.096 13.9793 1.288 13.788C1.48 13.5967 1.71733 13.5007 2 13.5H8C8.28333 13.5 8.521 13.596 8.713 13.788C8.905 13.98 9.00067 14.2173 9 14.5V18.5C9 18.7833 8.904 19.021 8.712 19.213C8.52 19.405 8.28267 19.5007 8 19.5H2C1.71667 19.5 1.47933 19.404 1.288 19.212C1.09667 19.02 1.00067 18.7827 1 18.5ZM3 9.5H7V3.5H3V9.5ZM13 17.5H17V11.5H13V17.5ZM13 5.5H17V3.5H13V5.5ZM3 17.5H7V15.5H3V17.5Z" fill="currentColor"/>
</svg>
