<svg width="21" height="21" viewBox="0 0 21 21" fill="none" xmlns="http://www.w3.org/2000/svg">
<path d="M7.76442 7.68742C7.96523 7.11655 8.36161 6.63518 8.88334 6.32855C9.40506 6.02193 10.0185 5.90984 10.6149 6.01215C11.2114 6.11446 11.7524 6.42455 12.1421 6.88752C12.5318 7.35048 12.7451 7.93643 12.7442 8.54159C12.7442 10.2499 10.1817 11.1041 10.1817 11.1041M10.25 14.5208H10.2586M18.7917 10.2499C18.7917 14.9674 14.9675 18.7916 10.25 18.7916C5.53261 18.7916 1.70837 14.9674 1.70837 10.2499C1.70837 5.53249 5.53261 1.70825 10.25 1.70825C14.9675 1.70825 18.7917 5.53249 18.7917 10.2499Z" stroke="currentColor" stroke-width="2" stroke-linecap="round" stroke-linejoin="round"/>
</svg>
