<svg width="39" height="35" viewBox="0 0 39 35" fill="none" xmlns="http://www.w3.org/2000/svg">
<g clip-path="url(#clip0_159_127)">
<path d="M8.75 31L2.75 25M8.75 31H24.75M8.75 31C8.75 9 21.75 7 32.75 7M2.75 25H18.75M2.75 25C2.75 11 9.75 1 26.75 1M24.75 31L18.75 25M24.75 31C24.75 26 28.75 23 32.75 23M32.75 7V23M32.75 7L26.75 1M18.75 25C18.75 20 22.75 17 26.75 17M26.75 1V17M26.75 17L32.75 23" stroke="#AFCEFF" stroke-width="2" stroke-linecap="round"/>
</g>
<defs>
<clipPath id="clip0_159_127">
<rect width="34" height="33" fill="white" transform="translate(1.25)"/>
</clipPath>
</defs>
</svg>
