<svg width="21" height="21" viewBox="0 0 21 21" fill="none" xmlns="http://www.w3.org/2000/svg">
<path d="M9.99976 13.6567C11.1043 13.6567 11.9998 12.7613 11.9998 11.6567C11.9998 10.5522 11.1043 9.65674 9.99976 9.65674C8.89519 9.65674 7.99976 10.5522 7.99976 11.6567C7.99976 12.7613 8.89519 13.6567 9.99976 13.6567Z" fill="currentColor"/>
<path d="M4.34304 17.3135C2.84281 15.8132 2 13.7784 2 11.6568C2 9.53507 2.84281 7.50028 4.34304 6M15.6565 17.3135C17.1568 15.8132 17.9996 13.7784 17.9996 11.6568C17.9996 9.53507 17.1568 7.50028 15.6565 6M6.46429 15.1922C5.52663 14.2546 4.99986 12.9828 4.99986 11.6568C4.99986 10.3307 5.52663 9.05893 6.46429 8.12125M13.5353 15.1922C14.473 14.2546 14.9997 12.9828 14.9997 11.6568C14.9997 10.3307 14.473 9.05893 13.5353 8.12125" stroke="currentColor" stroke-width="1.5" stroke-linecap="round" stroke-linejoin="round"/>
</svg>
