<svg width="21" height="21" viewBox="0 0 21 21" fill="none" xmlns="http://www.w3.org/2000/svg">
<g clip-path="url(#clip0_399_143)">
<path d="M10.25 12.8125C11.6652 12.8125 12.8125 11.6652 12.8125 10.25C12.8125 8.83477 11.6652 7.6875 10.25 7.6875C8.83477 7.6875 7.6875 8.83477 7.6875 10.25C7.6875 11.6652 8.83477 12.8125 10.25 12.8125Z" stroke="currentColor" stroke-width="2" stroke-linecap="round" stroke-linejoin="round"/>
<path d="M16.5708 12.8126C16.4571 13.0702 16.4232 13.356 16.4734 13.6331C16.5237 13.9102 16.6557 14.1659 16.8527 14.3672L16.9039 14.4184C17.0628 14.5771 17.1888 14.7655 17.2747 14.9729C17.3607 15.1803 17.4049 15.4026 17.4049 15.6271C17.4049 15.8516 17.3607 16.0739 17.2747 16.2812C17.1888 16.4886 17.0628 16.677 16.9039 16.8357C16.7453 16.9945 16.5568 17.1205 16.3495 17.2065C16.1421 17.2925 15.9198 17.3367 15.6953 17.3367C15.4708 17.3367 15.2485 17.2925 15.0411 17.2065C14.8337 17.1205 14.6453 16.9945 14.4866 16.8357L14.4354 16.7845C14.2341 16.5875 13.9784 16.4554 13.7013 16.4052C13.4242 16.355 13.1384 16.3889 12.8808 16.5026C12.6282 16.6109 12.4127 16.7906 12.2609 17.0198C12.1092 17.249 12.0277 17.5175 12.0266 17.7924V17.9376C12.0266 18.3907 11.8466 18.8252 11.5263 19.1456C11.2059 19.4659 10.7714 19.6459 10.3183 19.6459C9.86521 19.6459 9.43069 19.4659 9.11032 19.1456C8.78994 18.8252 8.60996 18.3907 8.60996 17.9376V17.8607C8.60335 17.578 8.51183 17.3038 8.34731 17.0738C8.18279 16.8437 7.95288 16.6685 7.68746 16.5709C7.42983 16.4572 7.14404 16.4233 6.86696 16.4735C6.58987 16.5238 6.33418 16.6559 6.13288 16.8528L6.08163 16.904C5.92297 17.0629 5.73456 17.1889 5.52717 17.2748C5.31978 17.3608 5.09748 17.4051 4.87298 17.4051C4.64848 17.4051 4.42618 17.3608 4.21879 17.2748C4.0114 17.1889 3.82299 17.0629 3.66433 16.904C3.5055 16.7454 3.37949 16.557 3.29352 16.3496C3.20755 16.1422 3.1633 15.9199 3.1633 15.6954C3.1633 15.4709 3.20755 15.2486 3.29352 15.0412C3.37949 14.8338 3.5055 14.6454 3.66433 14.4867L3.71558 14.4355C3.9125 14.2342 4.0446 13.9785 4.09484 13.7014C4.14508 13.4243 4.11116 13.1385 3.99746 12.8809C3.88918 12.6283 3.7094 12.4128 3.48023 12.2611C3.25107 12.1093 2.98253 12.0278 2.70767 12.0267H2.56246C2.10938 12.0267 1.67486 11.8468 1.35449 11.5264C1.03411 11.206 0.854126 10.7715 0.854126 10.3184C0.854126 9.86534 1.03411 9.43082 1.35449 9.11044C1.67486 8.79007 2.10938 8.61008 2.56246 8.61008H2.63933C2.92206 8.60347 3.19625 8.51195 3.42628 8.34743C3.6563 8.18291 3.83151 7.953 3.92913 7.68758C4.04283 7.42995 4.07675 7.14417 4.0265 6.86708C3.97626 6.58999 3.84417 6.33431 3.64725 6.133L3.596 6.08175C3.43717 5.92309 3.31116 5.73468 3.22519 5.52729C3.13922 5.3199 3.09497 5.0976 3.09497 4.8731C3.09497 4.6486 3.13922 4.4263 3.22519 4.21891C3.31116 4.01152 3.43717 3.82311 3.596 3.66446C3.75466 3.50562 3.94307 3.37962 4.15046 3.29365C4.35785 3.20768 4.58015 3.16342 4.80465 3.16342C5.02915 3.16342 5.25145 3.20768 5.45884 3.29365C5.66622 3.37962 5.85463 3.50562 6.01329 3.66446L6.06454 3.71571C6.26585 3.91262 6.52154 4.04472 6.79862 4.09496C7.07571 4.1452 7.3615 4.11128 7.61913 3.99758H7.68746C7.9401 3.8893 8.15556 3.70952 8.30732 3.48035C8.45909 3.25119 8.54053 2.98265 8.54163 2.70779V2.56258C8.54163 2.1095 8.72161 1.67498 9.04199 1.35461C9.36236 1.03423 9.79688 0.854248 10.25 0.854248C10.703 0.854248 11.1376 1.03423 11.4579 1.35461C11.7783 1.67498 11.9583 2.1095 11.9583 2.56258V2.63946C11.9594 2.91432 12.0408 3.18286 12.1926 3.41202C12.3444 3.64119 12.5598 3.82097 12.8125 3.92925C13.0701 4.04295 13.3559 4.07687 13.633 4.02663C13.91 3.97639 14.1657 3.84429 14.367 3.64737L14.4183 3.59612C14.5769 3.43729 14.7654 3.31128 14.9727 3.22531C15.1801 3.13934 15.4024 3.09509 15.6269 3.09509C15.8514 3.09509 16.0737 3.13934 16.2811 3.22531C16.4885 3.31128 16.6769 3.43729 16.8356 3.59612C16.9944 3.75478 17.1204 3.94319 17.2064 4.15058C17.2924 4.35797 17.3366 4.58027 17.3366 4.80477C17.3366 5.02927 17.2924 5.25157 17.2064 5.45896C17.1204 5.66635 16.9944 5.85476 16.8356 6.01341L16.7843 6.06466C16.5874 6.26597 16.4553 6.52166 16.4051 6.79874C16.3548 7.07583 16.3888 7.36162 16.5025 7.61925V7.68758C16.6107 7.94022 16.7905 8.15568 17.0197 8.30744C17.2489 8.45921 17.5174 8.54065 17.7923 8.54175H17.9375C18.3905 8.54175 18.8251 8.72173 19.1454 9.04211C19.4658 9.36248 19.6458 9.797 19.6458 10.2501C19.6458 10.7032 19.4658 11.1377 19.1454 11.4581C18.8251 11.7784 18.3905 11.9584 17.9375 11.9584H17.8606C17.5857 11.9595 17.3172 12.041 17.088 12.1927C16.8589 12.3445 16.6791 12.5599 16.5708 12.8126V12.8126Z" stroke="currentColor" stroke-width="2" stroke-linecap="round" stroke-linejoin="round"/>
</g>
<defs>
<clipPath id="clip0_399_143">
<rect width="20.5" height="20.5" fill="currentColor"/>
</clipPath>
</defs>
</svg>
